<svg width="16" height="16" viewBox="0 0 16 16" fill="none" xmlns="http://www.w3.org/2000/svg">
<path d="M5 5H11V11H5V5Z" fill="#D6F5F0"/>
<path d="M15 6.1875V4.8125H14V2.75C14 2.55109 13.921 2.36032 13.7803 2.21967C13.6397 2.07902 13.4489 2 13.25 2H11.1875V1H9.8125V2H8.6875V1H7.3125V2H6.1875V1H4.8125V2H2.75C2.55109 2 2.36032 2.07902 2.21967 2.21967C2.07902 2.36032 2 2.55109 2 2.75V4.8125H1V6.1875H2V7.3125H1V8.6875H2V9.8125H1V11.1875H2V13.25C2 13.4489 2.07902 13.6397 2.21967 13.7803C2.36032 13.921 2.55109 14 2.75 14H4.8125V15H6.1875V14H7.3125V15H8.6875V14H9.8125V15H11.1875V14H13.25C13.4489 14 13.6397 13.921 13.7803 13.7803C13.921 13.6397 14 13.4489 14 13.25V11.1875H15V9.8125H14V8.6875H15V7.3125H14V6.1875H15ZM4 4H12V12H4V4Z" fill="#D6F5F0"/>
</svg>
