<svg width="14" height="14" viewBox="0 0 14 14" fill="none" xmlns="http://www.w3.org/2000/svg">
<path d="M10.3438 4.5L6.6875 13.5H8.16375L8.92906 11.6875H11.7584L12.5238 13.5H14L10.3438 4.5ZM9.50969 10.3125L10.3438 7.74531L11.1778 10.3125H9.50969ZM7.5 9C7.49219 8.99406 6.85656 8.50719 6.08063 7.66656C7.3175 5.99031 8.01813 4.085 8.30406 3.1875H10V1.8125H5.6875V0.5H4.3125V1.8125H0V3.1875H6.85156C6.55406 4.02969 6.00625 5.35938 5.17063 6.57375C4.14937 5.21625 3.6975 4.2025 3.69156 4.19187L3.46875 3.75L2.28125 4.4375L2.49594 4.87063C2.52375 4.91937 3.03312 6.055 4.20563 7.57594C4.23438 7.61375 4.26344 7.65063 4.2925 7.6875C2.73875 9.46437 1.50656 10.1591 1.49062 10.1709L1 10.5L1.71875 11.625L2.32188 11.2666C2.39062 11.2144 3.61344 10.5166 5.19688 8.74219C5.96313 9.56344 6.5475 10.0181 6.58125 10.0444L6.96875 10.3125L7.5 9Z" fill="#D6F5F0"/>
</svg>
