<svg width="16" height="16" viewBox="0 0 16 16" fill="none" xmlns="http://www.w3.org/2000/svg">
<path d="M7.99991 14.4999C4.41585 14.4999 1.49991 11.5865 1.49991 8.00556C1.49683 7.0509 1.70464 6.10734 2.1085 5.2423C2.51237 4.37727 3.1023 3.61211 3.83616 3.0015L4.36429 2.564L5.2446 3.61775L4.71647 4.05525C4.13759 4.53749 3.67235 5.14162 3.354 5.8245C3.03566 6.50738 2.87207 7.25213 2.87491 8.00556C2.87491 10.8303 5.17397 13.1284 7.99991 13.1284C10.8259 13.1284 13.1249 10.8303 13.1249 8.00556C13.1248 7.25004 12.9571 6.50394 12.6338 5.82109C12.3105 5.13825 11.8396 4.53567 11.2552 4.05681L10.724 3.61931L11.599 2.56244L12.1302 2.99994C12.8709 3.60703 13.4677 4.37091 13.8775 5.23651C14.2872 6.10212 14.4998 7.04786 14.4999 8.00556C14.4999 11.5865 11.584 14.4999 7.99991 14.4999Z" fill="#D6F5F0"/>
<path d="M7.31238 1.49994H8.68738V8.49994H7.31238V1.49994Z" fill="#D6F5F0"/>
</svg>
