<svg width="16" height="16" viewBox="0 0 16 16" fill="none" xmlns="http://www.w3.org/2000/svg">
<path d="M1.2478 4.66406L7.41655 7.64281C7.57717 7.71938 7.79155 7.75938 8.00374 7.75938C8.21592 7.75938 8.4303 7.71938 8.59061 7.64281L14.7594 4.66406C15.0837 4.50781 15.0837 4.25219 14.7594 4.09531L8.59061 1.11656C8.4303 1.04 8.21561 1 8.00374 1C7.79186 1 7.57717 1.04 7.41655 1.11656L1.2478 4.09531C0.923423 4.25219 0.923423 4.50719 1.2478 4.66406Z" fill="#D6F5F0"/>
<path d="M14.7594 7.71562C14.7594 7.71562 13.6328 7.17249 13.4834 7.09937C13.3341 7.02624 13.2937 7.03031 13.1369 7.10312C12.98 7.17593 8.58687 9.29781 8.58687 9.29781C8.40169 9.37776 8.20168 9.41759 7.99999 9.41468C7.78843 9.41468 7.57343 9.37437 7.41312 9.29781C7.41312 9.29781 3.13656 7.23531 2.93593 7.13593C2.71874 7.03124 2.65624 7.03124 2.45843 7.12499L1.23968 7.71187C0.915305 7.86812 0.915305 8.12406 1.23968 8.28062L7.40937 11.2594C7.56968 11.3359 7.78437 11.3759 7.99624 11.3759C8.20812 11.3759 8.42281 11.3359 8.58343 11.2594L14.7522 8.28124C15.0837 8.12749 15.0837 7.87249 14.7594 7.71562Z" fill="#D6F5F0"/>
<path d="M14.7593 11.3359C14.7593 11.3359 13.6328 10.7928 13.4834 10.7187C13.334 10.6447 13.2937 10.6497 13.1368 10.7225C12.98 10.7953 8.59059 12.9219 8.59059 12.9219C8.40538 13.0017 8.20537 13.0414 8.00371 13.0384C7.79215 13.0384 7.57715 12.9984 7.41653 12.9219C7.41653 12.9219 3.13996 10.8594 2.93965 10.76C2.7209 10.6541 2.6584 10.6541 2.46184 10.7491L1.24309 11.3359C0.918401 11.4922 0.918401 11.7478 1.24309 11.9047L7.41184 14.8834C7.57215 14.9634 7.78684 15 7.99871 15C8.21059 15 8.42528 14.96 8.58559 14.8834L14.7556 11.9062C15.0837 11.7478 15.0837 11.4928 14.7593 11.3359Z" fill="#D6F5F0"/>
</svg>
